<svg width="212" height="40" viewBox="0 0 212 40" fill="none" xmlns="http://www.w3.org/2000/svg">
<g clip-path="url(#clip0_766_3393)">
<path fill-rule="evenodd" clip-rule="evenodd" d="M17.278 22.2332V40H14.0331V22.2332H0C0 22.2332 6.48398 20.3057 14.0331 18.9857V3.24489C14.0331 1.45829 15.4914 0 17.278 0V18.4702C17.9666 18.3726 18.6576 18.2826 19.3472 18.2019V22.2332H17.278ZM23.348 40H20.1031V7.0702e-06C21.8974 7.0702e-06 23.348 1.4583 23.348 3.2449V40ZM43.7106 18.4439V0C41.9164 0 40.4657 1.45829 40.4657 3.24489V18.2057C36.3057 17.9393 31.4882 17.7744 25.9363 17.7744C25.3408 17.7744 24.73 17.7897 24.1115 17.8126V22.2332H40.4657V40H43.7106V22.2332H46.5358V40H49.7806V22.2332H63.8138C63.8138 22.2332 60.0951 20.3928 49.7806 19.0768V3.2449C49.7806 1.4583 48.33 7.0702e-06 46.5358 7.0702e-06V18.7052C45.6356 18.6132 44.6943 18.5257 43.7106 18.4439Z" fill="#1C1713"/>
</g>
<path d="M82.3205 8.702C82.3205 8.322 82.2825 8.04333 82.2065 7.866C82.1305 7.676 81.9785 7.543 81.7505 7.467C81.5225 7.391 81.1741 7.353 80.7055 7.353C80.6675 7.353 80.6485 7.315 80.6485 7.239C80.6485 7.163 80.6675 7.125 80.7055 7.125L81.6175 7.144C82.2255 7.16933 82.7638 7.182 83.2325 7.182C83.5745 7.182 84.0368 7.16933 84.6195 7.144L85.6645 7.125C85.7025 7.125 85.7215 7.163 85.7215 7.239C85.7215 7.315 85.7025 7.353 85.6645 7.353C85.2085 7.353 84.8728 7.391 84.6575 7.467C84.4421 7.53033 84.2965 7.65067 84.2205 7.828C84.1445 8.00533 84.1065 8.284 84.1065 8.664V17.461C84.1065 17.841 84.1445 18.126 84.2205 18.316C84.2965 18.4933 84.4421 18.6137 84.6575 18.677C84.8728 18.7403 85.2085 18.772 85.6645 18.772C85.7025 18.772 85.7215 18.81 85.7215 18.886C85.7215 18.962 85.7025 19 85.6645 19C85.2338 19 84.8855 18.9937 84.6195 18.981L83.2325 18.962L81.6175 18.981C81.3895 18.9937 81.0855 19 80.7055 19C80.6675 19 80.6485 18.962 80.6485 18.886C80.6485 18.81 80.6675 18.772 80.7055 18.772C81.1868 18.772 81.5351 18.7403 81.7505 18.677C81.9785 18.6137 82.1305 18.4933 82.2065 18.316C82.2825 18.126 82.3205 17.841 82.3205 17.461V8.702ZM74.8155 12.578H83.1375V13.072H74.8155V12.578ZM73.9795 8.664C73.9795 8.284 73.9415 8.00533 73.8655 7.828C73.7895 7.65067 73.6438 7.53033 73.4285 7.467C73.2131 7.391 72.8838 7.353 72.4405 7.353C72.4151 7.353 72.4025 7.315 72.4025 7.239C72.4025 7.163 72.4151 7.125 72.4405 7.125L73.4475 7.144C74.0301 7.16933 74.4861 7.182 74.8155 7.182C75.2588 7.182 75.7845 7.16933 76.3925 7.144L77.3805 7.125C77.4058 7.125 77.4185 7.163 77.4185 7.239C77.4185 7.315 77.4058 7.353 77.3805 7.353C76.9245 7.353 76.5825 7.391 76.3545 7.467C76.1391 7.543 75.9871 7.676 75.8985 7.866C75.8225 8.04333 75.7845 8.322 75.7845 8.702V17.461C75.7845 17.841 75.8225 18.126 75.8985 18.316C75.9745 18.4933 76.1201 18.6137 76.3355 18.677C76.5635 18.7403 76.9118 18.772 77.3805 18.772C77.4058 18.772 77.4185 18.81 77.4185 18.886C77.4185 18.962 77.4058 19 77.3805 19C76.9498 19 76.6141 18.9937 76.3735 18.981L74.8155 18.962L73.4285 18.981C73.1878 18.9937 72.8521 19 72.4215 19C72.3961 19 72.3835 18.962 72.3835 18.886C72.3835 18.81 72.3961 18.772 72.4215 18.772C72.8775 18.772 73.2131 18.7403 73.4285 18.677C73.6438 18.6137 73.7895 18.4933 73.8655 18.316C73.9415 18.126 73.9795 17.841 73.9795 17.461V8.664ZM97.1351 9.443C97.1351 8.78433 96.9831 8.27133 96.6791 7.904C96.3878 7.53667 95.9635 7.353 95.4061 7.353C95.3808 7.353 95.3681 7.315 95.3681 7.239C95.3681 7.163 95.3808 7.125 95.4061 7.125L96.2801 7.144C96.7615 7.16933 97.1415 7.182 97.4201 7.182C97.6481 7.182 97.9901 7.16933 98.4461 7.144L99.2821 7.125C99.3075 7.125 99.3201 7.163 99.3201 7.239C99.3201 7.315 99.3075 7.353 99.2821 7.353C98.7881 7.353 98.4018 7.53667 98.1231 7.904C97.8571 8.27133 97.7241 8.78433 97.7241 9.443V14.763C97.7241 15.675 97.5278 16.473 97.1351 17.157C96.7551 17.8283 96.2105 18.3477 95.5011 18.715C94.8045 19.0823 93.9938 19.266 93.0691 19.266C92.1445 19.266 91.3211 19.0887 90.5991 18.734C89.8771 18.3667 89.3135 17.8473 88.9081 17.176C88.5155 16.492 88.3191 15.694 88.3191 14.782V8.664C88.3191 8.284 88.2811 8.00533 88.2051 7.828C88.1291 7.65067 87.9898 7.53033 87.7871 7.467C87.5971 7.391 87.2931 7.353 86.8751 7.353C86.8371 7.353 86.8181 7.315 86.8181 7.239C86.8181 7.163 86.8371 7.125 86.8751 7.125L87.8631 7.144C88.4205 7.16933 88.8701 7.182 89.2121 7.182C89.5921 7.182 90.0608 7.16933 90.6181 7.144L91.5681 7.125C91.6061 7.125 91.6251 7.163 91.6251 7.239C91.6251 7.315 91.6061 7.353 91.5681 7.353C91.1501 7.353 90.8398 7.391 90.6371 7.467C90.4345 7.543 90.2951 7.676 90.2191 7.866C90.1558 8.04333 90.1241 8.322 90.1241 8.702V14.117C90.1241 15.6243 90.4345 16.7517 91.0551 17.499C91.6885 18.2337 92.5688 18.601 93.6961 18.601C94.7728 18.601 95.6151 18.2717 96.2231 17.613C96.8311 16.9417 97.1351 15.998 97.1351 14.782V9.443ZM105.65 19.076C105.258 19.076 104.795 19.057 104.263 19.019C104.073 19.0063 103.833 18.9937 103.541 18.981C103.25 18.9683 102.927 18.962 102.572 18.962L101.223 18.981C100.983 18.9937 100.647 19 100.216 19C100.191 19 100.178 18.962 100.178 18.886C100.178 18.81 100.191 18.772 100.216 18.772C100.647 18.772 100.957 18.7403 101.147 18.677C101.35 18.6137 101.489 18.4933 101.565 18.316C101.641 18.126 101.679 17.841 101.679 17.461V8.664C101.679 8.284 101.641 8.00533 101.565 7.828C101.502 7.65067 101.369 7.53033 101.166 7.467C100.964 7.391 100.653 7.353 100.235 7.353C100.21 7.353 100.197 7.315 100.197 7.239C100.197 7.163 100.21 7.125 100.235 7.125L101.242 7.144C101.8 7.16933 102.243 7.182 102.572 7.182C103.066 7.182 103.579 7.163 104.111 7.125C104.745 7.09967 105.169 7.087 105.384 7.087C106.676 7.087 107.823 7.34033 108.823 7.847C109.824 8.35367 110.597 9.044 111.141 9.918C111.699 10.792 111.977 11.7737 111.977 12.863C111.977 14.0917 111.692 15.181 111.122 16.131C110.552 17.0683 109.786 17.7967 108.823 18.316C107.861 18.8227 106.803 19.076 105.65 19.076ZM105.46 18.696C106.334 18.696 107.107 18.487 107.778 18.069C108.462 17.651 108.994 17.0367 109.374 16.226C109.754 15.4027 109.944 14.421 109.944 13.281C109.944 12.1917 109.761 11.21 109.393 10.336C109.039 9.44933 108.532 8.75267 107.873 8.246C107.215 7.72667 106.448 7.467 105.574 7.467C105.03 7.467 104.612 7.49867 104.32 7.562C104.042 7.62533 103.833 7.74567 103.693 7.923C103.554 8.08767 103.484 8.34733 103.484 8.702V17.252C103.484 17.7713 103.617 18.145 103.883 18.373C104.162 18.5883 104.688 18.696 105.46 18.696ZM116.028 9.139C116.028 9.60767 116.142 10.0257 116.37 10.393C116.611 10.7477 116.902 11.058 117.244 11.324C117.586 11.5773 118.055 11.894 118.65 12.274C119.296 12.6793 119.803 13.0277 120.17 13.319C120.55 13.6103 120.873 13.9713 121.139 14.402C121.405 14.82 121.538 15.314 121.538 15.884C121.538 16.53 121.367 17.1063 121.025 17.613C120.696 18.1197 120.221 18.5187 119.6 18.81C118.992 19.0887 118.295 19.228 117.51 19.228C116.978 19.228 116.427 19.1583 115.857 19.019C115.3 18.8797 114.875 18.7087 114.584 18.506C114.47 18.43 114.407 18.3097 114.394 18.145L114.28 15.276V15.257C114.28 15.2063 114.312 15.181 114.375 15.181C114.438 15.1683 114.476 15.1873 114.489 15.238C114.907 16.2767 115.382 17.1317 115.914 17.803C116.459 18.4743 117.143 18.81 117.966 18.81C118.523 18.81 118.986 18.6643 119.353 18.373C119.72 18.069 119.904 17.5687 119.904 16.872C119.904 16.3147 119.777 15.827 119.524 15.409C119.283 14.991 118.979 14.6427 118.612 14.364C118.257 14.0853 117.77 13.7433 117.149 13.338C116.541 12.9453 116.066 12.616 115.724 12.35C115.382 12.0713 115.091 11.7357 114.85 11.343C114.609 10.9377 114.489 10.469 114.489 9.937C114.489 9.27833 114.673 8.721 115.04 8.265C115.407 7.809 115.882 7.47333 116.465 7.258C117.06 7.03 117.681 6.916 118.327 6.916C118.745 6.916 119.169 6.96033 119.6 7.049C120.031 7.125 120.398 7.22633 120.702 7.353C120.892 7.429 120.987 7.54933 120.987 7.714L121.025 10.279C121.025 10.3297 120.993 10.3613 120.93 10.374C120.879 10.3867 120.841 10.374 120.816 10.336C120.563 9.56333 120.221 8.86667 119.79 8.246C119.372 7.61267 118.739 7.296 117.89 7.296C117.32 7.296 116.864 7.467 116.522 7.809C116.193 8.13833 116.028 8.58167 116.028 9.139ZM129.496 19.228C128.318 19.228 127.267 18.9557 126.342 18.411C125.43 17.8537 124.721 17.1063 124.214 16.169C123.72 15.219 123.473 14.1867 123.473 13.072C123.473 11.7673 123.802 10.6527 124.461 9.728C125.12 8.79067 125.962 8.08767 126.988 7.619C128.027 7.15033 129.084 6.916 130.161 6.916C131.364 6.916 132.422 7.201 133.334 7.771C134.246 8.32833 134.943 9.06933 135.424 9.994C135.918 10.9187 136.165 11.9003 136.165 12.939C136.165 14.0917 135.861 15.1493 135.253 16.112C134.645 17.0747 133.828 17.8347 132.802 18.392C131.789 18.9493 130.687 19.228 129.496 19.228ZM130.142 18.772C130.902 18.772 131.58 18.5693 132.175 18.164C132.783 17.746 133.258 17.138 133.6 16.34C133.955 15.542 134.132 14.592 134.132 13.49C134.132 12.312 133.936 11.267 133.543 10.355C133.163 9.43033 132.612 8.70833 131.89 8.189C131.181 7.66967 130.345 7.41 129.382 7.41C128.141 7.41 127.184 7.85333 126.513 8.74C125.842 9.614 125.506 10.83 125.506 12.388C125.506 13.604 125.702 14.6997 126.095 15.675C126.488 16.6377 127.039 17.3977 127.748 17.955C128.457 18.4997 129.255 18.772 130.142 18.772ZM139.464 7.562L139.977 7.6V16.701C139.977 17.3723 140.104 17.8853 140.357 18.24C140.623 18.5947 141.009 18.772 141.516 18.772C141.554 18.772 141.573 18.81 141.573 18.886C141.573 18.962 141.554 19 141.516 19C141.187 19 140.933 18.9937 140.756 18.981L139.749 18.962L138.628 18.981C138.425 18.9937 138.134 19 137.754 19C137.716 19 137.697 18.962 137.697 18.886C137.697 18.81 137.716 18.772 137.754 18.772C138.299 18.772 138.717 18.5947 139.008 18.24C139.312 17.8853 139.464 17.3723 139.464 16.701V7.562ZM149.116 19.266C149.116 19.304 149.084 19.3293 149.021 19.342C148.958 19.3547 148.913 19.3483 148.888 19.323L139.749 8.683C139.318 8.189 138.938 7.847 138.609 7.657C138.28 7.45433 137.957 7.353 137.64 7.353C137.602 7.353 137.583 7.315 137.583 7.239C137.583 7.163 137.602 7.125 137.64 7.125L138.4 7.144C138.552 7.15667 138.78 7.163 139.084 7.163L140.3 7.144C140.452 7.13133 140.629 7.125 140.832 7.125C140.933 7.125 141.009 7.15033 141.06 7.201C141.111 7.25167 141.187 7.353 141.288 7.505C141.503 7.79633 141.662 7.999 141.763 8.113L148.964 16.587L149.116 19.266ZM149.116 19.266L148.603 18.696V9.443C148.603 8.77167 148.47 8.25867 148.204 7.904C147.951 7.53667 147.571 7.353 147.064 7.353C147.039 7.353 147.026 7.315 147.026 7.239C147.026 7.163 147.039 7.125 147.064 7.125L147.843 7.144C148.248 7.16933 148.584 7.182 148.85 7.182C149.091 7.182 149.439 7.16933 149.895 7.144L150.693 7.125C150.731 7.125 150.75 7.163 150.75 7.239C150.75 7.315 150.731 7.353 150.693 7.353C150.186 7.353 149.794 7.53667 149.515 7.904C149.249 8.25867 149.116 8.77167 149.116 9.443V19.266ZM165.68 19C165.376 19 164.812 18.468 163.989 17.404C163.178 16.34 162.19 14.858 161.025 12.958L162.545 12.502C163.609 14.0853 164.496 15.3267 165.205 16.226C165.927 17.1127 166.567 17.7587 167.124 18.164C167.681 18.5693 168.22 18.772 168.739 18.772C168.764 18.772 168.777 18.81 168.777 18.886C168.777 18.962 168.764 19 168.739 19H165.68ZM161.367 7.068C162.456 7.068 163.305 7.28967 163.913 7.733C164.521 8.16367 164.825 8.759 164.825 9.519C164.825 10.2283 164.622 10.868 164.217 11.438C163.812 12.008 163.273 12.4577 162.602 12.787C161.943 13.1037 161.247 13.262 160.512 13.262C160.246 13.262 159.923 13.2493 159.543 13.224V17.461C159.543 17.8537 159.575 18.1387 159.638 18.316C159.701 18.4933 159.828 18.6137 160.018 18.677C160.221 18.7403 160.544 18.772 160.987 18.772C161.012 18.772 161.025 18.81 161.025 18.886C161.025 18.962 161.012 19 160.987 19C160.569 19 160.24 18.9937 159.999 18.981L158.612 18.962L157.244 18.981C157.003 18.9937 156.674 19 156.256 19C156.218 19 156.199 18.962 156.199 18.886C156.199 18.81 156.218 18.772 156.256 18.772C156.687 18.772 156.997 18.7403 157.187 18.677C157.39 18.6137 157.529 18.4933 157.605 18.316C157.681 18.126 157.719 17.841 157.719 17.461V8.664C157.719 8.284 157.681 8.00533 157.605 7.828C157.542 7.65067 157.409 7.53033 157.206 7.467C157.003 7.391 156.693 7.353 156.275 7.353C156.25 7.353 156.237 7.315 156.237 7.239C156.237 7.163 156.25 7.125 156.275 7.125L157.263 7.144C157.82 7.16933 158.27 7.182 158.612 7.182C159.03 7.182 159.486 7.163 159.98 7.125C160.145 7.11233 160.341 7.09967 160.569 7.087C160.81 7.07433 161.076 7.068 161.367 7.068ZM162.944 10.184C162.944 9.158 162.767 8.44233 162.412 8.037C162.07 7.63167 161.57 7.429 160.911 7.429C160.404 7.429 160.05 7.524 159.847 7.714C159.644 7.89133 159.543 8.22067 159.543 8.702V12.711C159.847 12.7617 160.214 12.787 160.645 12.787C161.468 12.787 162.057 12.5843 162.412 12.179C162.767 11.761 162.944 11.096 162.944 10.184ZM172.681 17.461C172.681 17.8537 172.712 18.1387 172.776 18.316C172.852 18.4933 172.985 18.6137 173.175 18.677C173.377 18.7403 173.694 18.772 174.125 18.772C174.163 18.772 174.182 18.81 174.182 18.886C174.182 18.962 174.163 19 174.125 19C173.719 19 173.396 18.9937 173.156 18.981L171.75 18.962L170.382 18.981C170.141 18.9937 169.812 19 169.394 19C169.356 19 169.337 18.962 169.337 18.886C169.337 18.81 169.356 18.772 169.394 18.772C169.824 18.772 170.135 18.7403 170.325 18.677C170.527 18.6137 170.667 18.4933 170.743 18.316C170.819 18.126 170.857 17.841 170.857 17.461V8.664C170.857 8.284 170.819 8.00533 170.743 7.828C170.667 7.65067 170.527 7.53033 170.325 7.467C170.135 7.391 169.824 7.353 169.394 7.353C169.356 7.353 169.337 7.315 169.337 7.239C169.337 7.163 169.356 7.125 169.394 7.125L170.382 7.144C170.939 7.16933 171.395 7.182 171.75 7.182C172.142 7.182 172.617 7.16933 173.175 7.144L174.125 7.125C174.163 7.125 174.182 7.163 174.182 7.239C174.182 7.315 174.163 7.353 174.125 7.353C173.707 7.353 173.396 7.391 173.194 7.467C172.991 7.543 172.852 7.676 172.776 7.866C172.712 8.04333 172.681 8.322 172.681 8.702V17.461ZM187.65 7.125C187.688 7.125 187.707 7.163 187.707 7.239C187.707 7.315 187.688 7.353 187.65 7.353C187.207 7.353 186.795 7.524 186.415 7.866C186.035 8.208 185.725 8.702 185.484 9.348L181.779 18.981C181.766 19.0317 181.697 19.057 181.57 19.057C181.443 19.057 181.374 19.0317 181.361 18.981L176.554 8.702C176.326 8.23333 176.098 7.89133 175.87 7.676C175.642 7.46067 175.37 7.353 175.053 7.353C175.015 7.353 174.996 7.315 174.996 7.239C174.996 7.163 175.015 7.125 175.053 7.125L175.547 7.144C175.851 7.16933 176.168 7.182 176.497 7.182C177.384 7.182 178.182 7.16933 178.891 7.144C179.094 7.13133 179.347 7.125 179.651 7.125C179.689 7.125 179.708 7.163 179.708 7.239C179.708 7.315 179.689 7.353 179.651 7.353C179.271 7.353 178.98 7.42267 178.777 7.562C178.574 7.70133 178.473 7.904 178.473 8.17C178.473 8.398 178.536 8.63867 178.663 8.892L182.33 16.834L181.551 18.145L184.971 9.272C185.085 8.968 185.142 8.69567 185.142 8.455C185.142 8.10033 185.022 7.828 184.781 7.638C184.553 7.448 184.211 7.353 183.755 7.353C183.717 7.353 183.698 7.315 183.698 7.239C183.698 7.163 183.717 7.125 183.755 7.125L184.629 7.144C185.136 7.16933 185.585 7.182 185.978 7.182C186.219 7.182 186.516 7.16933 186.871 7.144L187.65 7.125ZM188.374 19C188.336 19 188.317 18.962 188.317 18.886C188.317 18.81 188.336 18.772 188.374 18.772C188.805 18.772 189.115 18.7403 189.305 18.677C189.508 18.6137 189.641 18.4933 189.704 18.316C189.78 18.126 189.818 17.841 189.818 17.461V8.664C189.818 8.284 189.78 8.00533 189.704 7.828C189.641 7.65067 189.508 7.53033 189.305 7.467C189.103 7.391 188.792 7.353 188.374 7.353C188.336 7.353 188.317 7.315 188.317 7.239C188.317 7.163 188.336 7.125 188.374 7.125H196.278C196.405 7.125 196.468 7.182 196.468 7.296L196.506 9.766C196.506 9.79133 196.468 9.81033 196.392 9.823C196.329 9.823 196.291 9.804 196.278 9.766C195.974 8.33467 195.1 7.619 193.656 7.619H192.877C192.409 7.619 192.079 7.70133 191.889 7.866C191.712 8.03067 191.623 8.30933 191.623 8.702V17.385C191.623 17.803 191.699 18.0943 191.851 18.259C192.016 18.4237 192.301 18.506 192.706 18.506H193.637C195.335 18.506 196.411 17.689 196.867 16.055C196.867 16.0297 196.899 16.017 196.962 16.017C197.051 16.017 197.095 16.036 197.095 16.074C196.969 17.0367 196.905 17.917 196.905 18.715C196.905 18.8163 196.886 18.8923 196.848 18.943C196.81 18.981 196.734 19 196.62 19H188.374ZM195.556 14.706C195.556 13.6167 194.847 13.072 193.428 13.072H190.768V12.578H193.447C194.841 12.578 195.537 12.1093 195.537 11.172C195.537 11.134 195.569 11.115 195.632 11.115C195.708 11.115 195.746 11.134 195.746 11.172L195.727 12.825L195.746 13.718C195.772 14.1233 195.784 14.4527 195.784 14.706C195.784 14.7313 195.746 14.744 195.67 14.744C195.594 14.744 195.556 14.7313 195.556 14.706ZM208.189 19C207.885 19 207.321 18.468 206.498 17.404C205.687 16.34 204.699 14.858 203.534 12.958L205.054 12.502C206.118 14.0853 207.004 15.3267 207.714 16.226C208.436 17.1127 209.075 17.7587 209.633 18.164C210.19 18.5693 210.728 18.772 211.248 18.772C211.273 18.772 211.286 18.81 211.286 18.886C211.286 18.962 211.273 19 211.248 19H208.189ZM203.876 7.068C204.965 7.068 205.814 7.28967 206.422 7.733C207.03 8.16367 207.334 8.759 207.334 9.519C207.334 10.2283 207.131 10.868 206.726 11.438C206.32 12.008 205.782 12.4577 205.111 12.787C204.452 13.1037 203.755 13.262 203.021 13.262C202.755 13.262 202.432 13.2493 202.052 13.224V17.461C202.052 17.8537 202.083 18.1387 202.147 18.316C202.21 18.4933 202.337 18.6137 202.527 18.677C202.729 18.7403 203.052 18.772 203.496 18.772C203.521 18.772 203.534 18.81 203.534 18.886C203.534 18.962 203.521 19 203.496 19C203.078 19 202.748 18.9937 202.508 18.981L201.121 18.962L199.753 18.981C199.512 18.9937 199.183 19 198.765 19C198.727 19 198.708 18.962 198.708 18.886C198.708 18.81 198.727 18.772 198.765 18.772C199.195 18.772 199.506 18.7403 199.696 18.677C199.898 18.6137 200.038 18.4933 200.114 18.316C200.19 18.126 200.228 17.841 200.228 17.461V8.664C200.228 8.284 200.19 8.00533 200.114 7.828C200.05 7.65067 199.917 7.53033 199.715 7.467C199.512 7.391 199.202 7.353 198.784 7.353C198.758 7.353 198.746 7.315 198.746 7.239C198.746 7.163 198.758 7.125 198.784 7.125L199.772 7.144C200.329 7.16933 200.779 7.182 201.121 7.182C201.539 7.182 201.995 7.163 202.489 7.125C202.653 7.11233 202.85 7.09967 203.078 7.087C203.318 7.07433 203.584 7.068 203.876 7.068ZM205.453 10.184C205.453 9.158 205.275 8.44233 204.921 8.037C204.579 7.63167 204.078 7.429 203.42 7.429C202.913 7.429 202.558 7.524 202.356 7.714C202.153 7.89133 202.052 8.22067 202.052 8.702V12.711C202.356 12.7617 202.723 12.787 203.154 12.787C203.977 12.787 204.566 12.5843 204.921 12.179C205.275 11.761 205.453 11.096 205.453 10.184ZM76.7455 27.368C77.2495 27.368 77.6735 27.404 78.0175 27.476C78.3615 27.548 78.7055 27.672 79.0495 27.848C79.1055 27.88 79.1375 27.908 79.1455 27.932C79.1535 27.956 79.1655 28.016 79.1815 28.112L79.3255 29.54C79.3255 29.564 79.3015 29.58 79.2535 29.588C79.2135 29.588 79.1895 29.576 79.1815 29.552C78.8135 28.216 77.9895 27.548 76.7095 27.548C76.0375 27.548 75.4415 27.696 74.9215 27.992C74.4095 28.288 74.0135 28.712 73.7335 29.264C73.4535 29.808 73.3135 30.444 73.3135 31.172C73.3135 31.868 73.4695 32.508 73.7815 33.092C74.0935 33.668 74.5095 34.124 75.0295 34.46C75.5575 34.796 76.1295 34.964 76.7455 34.964C77.4015 34.964 77.9335 34.804 78.3415 34.484C78.7495 34.164 79.0615 33.676 79.2775 33.02C79.2775 33.004 79.2975 32.996 79.3375 32.996C79.3935 32.996 79.4215 33.008 79.4215 33.032L79.3015 34.352C79.2935 34.448 79.2815 34.508 79.2655 34.532C79.2495 34.556 79.2175 34.584 79.1695 34.616C78.7535 34.816 78.3615 34.956 77.9935 35.036C77.6335 35.116 77.2175 35.156 76.7455 35.156C75.9055 35.156 75.1535 34.992 74.4895 34.664C73.8335 34.328 73.3215 33.86 72.9535 33.26C72.5855 32.66 72.4015 31.972 72.4015 31.196C72.4015 30.444 72.5895 29.78 72.9655 29.204C73.3415 28.62 73.8575 28.168 74.5135 27.848C75.1775 27.528 75.9215 27.368 76.7455 27.368ZM84.432 35.144C83.688 35.144 83.024 34.972 82.44 34.628C81.864 34.276 81.416 33.804 81.096 33.212C80.784 32.612 80.628 31.96 80.628 31.256C80.628 30.432 80.836 29.728 81.252 29.144C81.668 28.552 82.2 28.108 82.848 27.812C83.504 27.516 84.172 27.368 84.852 27.368C85.612 27.368 86.28 27.548 86.856 27.908C87.432 28.26 87.872 28.728 88.176 29.312C88.488 29.896 88.644 30.516 88.644 31.172C88.644 31.9 88.452 32.568 88.068 33.176C87.684 33.784 87.168 34.264 86.52 34.616C85.88 34.968 85.184 35.144 84.432 35.144ZM84.852 34.892C85.396 34.892 85.884 34.76 86.316 34.496C86.756 34.232 87.1 33.848 87.348 33.344C87.604 32.832 87.732 32.22 87.732 31.508C87.732 30.756 87.592 30.088 87.312 29.504C87.032 28.92 86.636 28.464 86.124 28.136C85.62 27.808 85.028 27.644 84.348 27.644C83.468 27.644 82.78 27.928 82.284 28.496C81.788 29.064 81.54 29.844 81.54 30.836C81.54 31.588 81.68 32.276 81.96 32.9C82.24 33.516 82.632 34.004 83.136 34.364C83.64 34.716 84.212 34.892 84.852 34.892ZM90.7755 27.776L91.0635 27.8L90.9435 33.692C90.9355 34.116 91.0075 34.416 91.1595 34.592C91.3115 34.768 91.5795 34.856 91.9635 34.856C91.9795 34.856 91.9875 34.88 91.9875 34.928C91.9875 34.976 91.9795 35 91.9635 35C91.7395 35 91.5675 34.996 91.4475 34.988L90.7995 34.976L90.1755 34.988C90.0635 34.996 89.9035 35 89.6955 35C89.6795 35 89.6715 34.976 89.6715 34.928C89.6715 34.88 89.6795 34.856 89.6955 34.856C90.0315 34.856 90.2715 34.768 90.4155 34.592C90.5675 34.408 90.6475 34.108 90.6555 33.692L90.7755 27.776ZM98.9715 34.856C98.9955 34.856 99.0075 34.88 99.0075 34.928C99.0075 34.976 98.9955 35 98.9715 35C98.7235 35 98.5275 34.996 98.3835 34.988L97.5555 34.976L96.7875 34.988C96.6595 34.996 96.4795 35 96.2475 35C96.2315 35 96.2235 34.976 96.2235 34.928C96.2235 34.88 96.2315 34.856 96.2475 34.856C96.5195 34.856 96.7195 34.836 96.8475 34.796C96.9835 34.748 97.0715 34.668 97.1115 34.556C97.1595 34.444 97.1755 34.268 97.1595 34.028L96.9315 28.232L97.3275 27.68L94.2075 34.916C94.1915 34.948 94.1595 34.964 94.1115 34.964C94.0715 34.964 94.0355 34.948 94.0035 34.916L90.9915 28.496C90.8555 28.2 90.6875 27.984 90.4875 27.848C90.2955 27.712 90.0595 27.644 89.7795 27.644C89.7635 27.644 89.7555 27.62 89.7555 27.572C89.7555 27.524 89.7635 27.5 89.7795 27.5L90.2235 27.512C90.3035 27.52 90.4155 27.524 90.5595 27.524C90.7035 27.524 90.8235 27.52 90.9195 27.512C91.0235 27.504 91.1035 27.5 91.1595 27.5C91.2635 27.5 91.3475 27.54 91.4115 27.62C91.4835 27.692 91.5835 27.86 91.7115 28.124L94.4475 33.884L94.0755 34.508L97.0035 27.8C97.0915 27.6 97.2115 27.5 97.3635 27.5C97.4035 27.5 97.4595 27.504 97.5315 27.512C97.6115 27.52 97.7155 27.524 97.8435 27.524L98.4075 27.512C98.4955 27.504 98.6275 27.5 98.8035 27.5C98.8195 27.5 98.8275 27.524 98.8275 27.572C98.8275 27.62 98.8195 27.644 98.8035 27.644C98.3955 27.644 98.1035 27.704 97.9275 27.824C97.7595 27.936 97.6835 28.152 97.6995 28.472L97.9395 34.028C97.9475 34.276 97.9755 34.456 98.0235 34.568C98.0795 34.68 98.1755 34.756 98.3115 34.796C98.4475 34.836 98.6675 34.856 98.9715 34.856ZM101.551 33.98C101.551 34.236 101.583 34.424 101.647 34.544C101.719 34.656 101.851 34.736 102.043 34.784C102.243 34.832 102.555 34.856 102.979 34.856C103.003 34.856 103.015 34.88 103.015 34.928C103.015 34.976 103.003 35 102.979 35C102.651 35 102.395 34.996 102.211 34.988L101.167 34.976L100.363 34.988C100.211 34.996 100.007 35 99.7511 35C99.7351 35 99.7271 34.976 99.7271 34.928C99.7271 34.88 99.7351 34.856 99.7511 34.856C100.055 34.856 100.275 34.836 100.411 34.796C100.555 34.756 100.651 34.68 100.699 34.568C100.747 34.448 100.771 34.268 100.771 34.028V28.472C100.771 28.232 100.747 28.056 100.699 27.944C100.651 27.832 100.555 27.756 100.411 27.716C100.275 27.668 100.055 27.644 99.7511 27.644C99.7351 27.644 99.7271 27.62 99.7271 27.572C99.7271 27.524 99.7351 27.5 99.7511 27.5L100.351 27.512C100.687 27.528 100.955 27.536 101.155 27.536C101.355 27.536 101.579 27.524 101.827 27.5C101.923 27.5 102.075 27.496 102.283 27.488C102.491 27.472 102.671 27.464 102.823 27.464C103.559 27.464 104.147 27.628 104.587 27.956C105.035 28.284 105.259 28.784 105.259 29.456C105.259 29.984 105.127 30.428 104.863 30.788C104.607 31.148 104.275 31.416 103.867 31.592C103.459 31.768 103.039 31.856 102.607 31.856C102.375 31.856 102.183 31.836 102.031 31.796C102.007 31.796 101.995 31.776 101.995 31.736C101.995 31.712 101.999 31.688 102.007 31.664C102.023 31.64 102.039 31.632 102.055 31.64C102.183 31.672 102.327 31.688 102.487 31.688C103.015 31.688 103.459 31.516 103.819 31.172C104.187 30.828 104.371 30.332 104.371 29.684C104.371 29.052 104.199 28.556 103.855 28.196C103.511 27.828 103.071 27.644 102.535 27.644C102.247 27.644 102.039 27.66 101.911 27.692C101.783 27.724 101.691 27.8 101.635 27.92C101.579 28.032 101.551 28.224 101.551 28.496V33.98ZM107.683 31.46H110.863L110.947 31.7H107.563L107.683 31.46ZM113.623 34.856C113.655 34.856 113.671 34.88 113.671 34.928C113.671 34.976 113.655 35 113.623 35C113.471 35 113.235 34.992 112.915 34.976C112.595 34.96 112.363 34.952 112.219 34.952C112.043 34.952 111.819 34.96 111.547 34.976C111.291 34.992 111.095 35 110.959 35C110.927 35 110.911 34.976 110.911 34.928C110.911 34.88 110.927 34.856 110.959 34.856C111.263 34.856 111.479 34.828 111.607 34.772C111.743 34.716 111.811 34.616 111.811 34.472C111.811 34.352 111.763 34.184 111.667 33.968L109.003 28.34L109.303 27.968L106.975 33.476C106.863 33.748 106.807 33.972 106.807 34.148C106.807 34.62 107.199 34.856 107.983 34.856C108.023 34.856 108.043 34.88 108.043 34.928C108.043 34.976 108.023 35 107.983 35C107.839 35 107.631 34.992 107.359 34.976C107.055 34.96 106.791 34.952 106.567 34.952C106.359 34.952 106.119 34.96 105.847 34.976C105.607 34.992 105.407 35 105.247 35C105.207 35 105.187 34.976 105.187 34.928C105.187 34.88 105.207 34.856 105.247 34.856C105.471 34.856 105.659 34.816 105.811 34.736C105.971 34.648 106.119 34.5 106.255 34.292C106.399 34.076 106.555 33.768 106.723 33.368L109.255 27.392C109.271 27.368 109.299 27.356 109.339 27.356C109.379 27.356 109.403 27.368 109.411 27.392L112.243 33.356C112.515 33.948 112.747 34.348 112.939 34.556C113.131 34.756 113.359 34.856 113.623 34.856ZM115.101 27.776L115.377 27.8V33.692C115.377 34.108 115.449 34.408 115.593 34.592C115.745 34.768 115.985 34.856 116.313 34.856C116.337 34.856 116.349 34.88 116.349 34.928C116.349 34.976 116.337 35 116.313 35C116.113 35 115.961 34.996 115.857 34.988L115.257 34.976L114.645 34.988C114.533 34.996 114.369 35 114.153 35C114.137 35 114.129 34.976 114.129 34.928C114.129 34.88 114.137 34.856 114.153 34.856C114.497 34.856 114.741 34.768 114.885 34.592C115.029 34.408 115.101 34.108 115.101 33.692V27.776ZM121.149 35.144C121.149 35.16 121.129 35.172 121.089 35.18C121.049 35.188 121.021 35.184 121.005 35.168L115.485 28.484C115.229 28.172 114.993 27.956 114.777 27.836C114.569 27.708 114.361 27.644 114.153 27.644C114.129 27.644 114.117 27.62 114.117 27.572C114.117 27.524 114.129 27.5 114.153 27.5L114.597 27.512C114.693 27.52 114.825 27.524 114.993 27.524C115.169 27.524 115.313 27.52 115.425 27.512C115.537 27.504 115.625 27.5 115.689 27.5C115.745 27.5 115.789 27.516 115.821 27.548C115.861 27.572 115.905 27.628 115.953 27.716C116.049 27.86 116.149 27.996 116.253 28.124L121.053 34.016L121.149 35.144ZM121.149 35.144L120.873 34.772V28.82C120.873 28.404 120.801 28.104 120.657 27.92C120.521 27.736 120.289 27.644 119.961 27.644C119.945 27.644 119.937 27.62 119.937 27.572C119.937 27.524 119.945 27.5 119.961 27.5L120.429 27.512C120.669 27.528 120.865 27.536 121.017 27.536C121.161 27.536 121.361 27.528 121.617 27.512L122.109 27.5C122.133 27.5 122.145 27.524 122.145 27.572C122.145 27.62 122.133 27.644 122.109 27.644C121.773 27.644 121.529 27.736 121.377 27.92C121.225 28.104 121.149 28.404 121.149 28.82V35.144ZM124.768 34.028C124.768 34.276 124.792 34.456 124.84 34.568C124.888 34.68 124.98 34.756 125.116 34.796C125.26 34.836 125.484 34.856 125.788 34.856C125.812 34.856 125.824 34.88 125.824 34.928C125.824 34.976 125.812 35 125.788 35C125.548 35 125.356 34.996 125.212 34.988L124.36 34.976L123.532 34.988C123.388 34.996 123.192 35 122.944 35C122.92 35 122.908 34.976 122.908 34.928C122.908 34.88 122.92 34.856 122.944 34.856C123.248 34.856 123.468 34.836 123.604 34.796C123.748 34.756 123.844 34.68 123.892 34.568C123.948 34.448 123.976 34.268 123.976 34.028V28.472C123.976 28.232 123.948 28.056 123.892 27.944C123.844 27.832 123.748 27.756 123.604 27.716C123.468 27.668 123.248 27.644 122.944 27.644C122.92 27.644 122.908 27.62 122.908 27.572C122.908 27.524 122.92 27.5 122.944 27.5L123.532 27.512C123.868 27.528 124.144 27.536 124.36 27.536C124.6 27.536 124.888 27.528 125.224 27.512L125.788 27.5C125.812 27.5 125.824 27.524 125.824 27.572C125.824 27.62 125.812 27.644 125.788 27.644C125.492 27.644 125.272 27.668 125.128 27.716C124.984 27.764 124.888 27.848 124.84 27.968C124.792 28.08 124.768 28.256 124.768 28.496V34.028ZM126.88 35C126.864 35 126.856 34.976 126.856 34.928C126.856 34.88 126.864 34.856 126.88 34.856C127.184 34.856 127.404 34.836 127.54 34.796C127.684 34.756 127.78 34.68 127.828 34.568C127.884 34.448 127.912 34.268 127.912 34.028V28.472C127.912 28.232 127.884 28.056 127.828 27.944C127.78 27.832 127.684 27.756 127.54 27.716C127.404 27.668 127.184 27.644 126.88 27.644C126.864 27.644 126.856 27.62 126.856 27.572C126.856 27.524 126.864 27.5 126.88 27.5H131.704C131.776 27.5 131.812 27.536 131.812 27.608L131.836 29.084C131.836 29.108 131.812 29.124 131.764 29.132C131.724 29.132 131.704 29.12 131.704 29.096C131.68 28.672 131.552 28.344 131.32 28.112C131.088 27.872 130.78 27.752 130.396 27.752H129.664C129.384 27.752 129.176 27.776 129.04 27.824C128.904 27.864 128.808 27.936 128.752 28.04C128.704 28.144 128.68 28.308 128.68 28.532V33.98C128.68 34.196 128.704 34.36 128.752 34.472C128.808 34.576 128.9 34.648 129.028 34.688C129.156 34.728 129.356 34.748 129.628 34.748H130.588C130.972 34.748 131.292 34.612 131.548 34.34C131.804 34.068 131.976 33.692 132.064 33.212C132.064 33.196 132.08 33.188 132.112 33.188C132.136 33.188 132.156 33.196 132.172 33.212C132.196 33.22 132.208 33.228 132.208 33.236C132.136 33.74 132.1 34.268 132.1 34.82C132.1 34.884 132.084 34.932 132.052 34.964C132.028 34.988 131.98 35 131.908 35H126.88ZM131.236 32.204C131.236 31.852 131.148 31.6 130.972 31.448C130.804 31.296 130.52 31.22 130.12 31.22H128.32V30.968H130.156C130.54 30.968 130.812 30.904 130.972 30.776C131.14 30.648 131.224 30.432 131.224 30.128C131.224 30.112 131.248 30.104 131.296 30.104C131.344 30.104 131.368 30.112 131.368 30.128L131.356 31.1C131.356 31.332 131.36 31.508 131.368 31.628L131.38 32.204C131.38 32.22 131.356 32.228 131.308 32.228C131.26 32.228 131.236 32.22 131.236 32.204ZM134.55 28.904C134.55 29.216 134.626 29.488 134.778 29.72C134.93 29.952 135.114 30.148 135.33 30.308C135.546 30.46 135.85 30.656 136.242 30.896C136.658 31.144 136.982 31.352 137.214 31.52C137.446 31.688 137.642 31.904 137.802 32.168C137.97 32.424 138.054 32.732 138.054 33.092C138.054 33.476 137.958 33.824 137.766 34.136C137.574 34.448 137.29 34.696 136.914 34.88C136.546 35.056 136.102 35.144 135.582 35.144C134.966 35.144 134.402 35.004 133.89 34.724C133.85 34.7 133.822 34.672 133.806 34.64C133.798 34.608 133.79 34.56 133.782 34.496L133.626 32.864C133.618 32.832 133.634 32.812 133.674 32.804C133.722 32.796 133.75 32.808 133.758 32.84C133.878 33.408 134.114 33.904 134.466 34.328C134.818 34.744 135.282 34.952 135.858 34.952C136.258 34.952 136.594 34.844 136.866 34.628C137.146 34.404 137.286 34.052 137.286 33.572C137.286 33.212 137.206 32.9 137.046 32.636C136.886 32.372 136.69 32.156 136.458 31.988C136.234 31.812 135.926 31.608 135.534 31.376C135.15 31.144 134.846 30.944 134.622 30.776C134.406 30.608 134.222 30.396 134.07 30.14C133.918 29.884 133.842 29.584 133.842 29.24C133.842 28.84 133.946 28.5 134.154 28.22C134.37 27.932 134.646 27.72 134.982 27.584C135.326 27.44 135.69 27.368 136.074 27.368C136.546 27.368 137.014 27.464 137.478 27.656C137.598 27.696 137.658 27.764 137.658 27.86L137.742 29.228C137.742 29.268 137.718 29.288 137.67 29.288C137.63 29.288 137.606 29.272 137.598 29.24C137.542 28.824 137.374 28.44 137.094 28.088C136.814 27.728 136.41 27.548 135.882 27.548C135.434 27.548 135.098 27.68 134.874 27.944C134.658 28.2 134.55 28.52 134.55 28.904Z" fill="#1C1713"/>
<defs>
<clipPath id="clip0_766_3393">
<rect width="63.8137" height="40" fill="white"/>
</clipPath>
</defs>
</svg>
