<svg width="34" height="35" viewBox="0 0 34 35" fill="none" xmlns="http://www.w3.org/2000/svg">
<rect width="33.9999" height="34.8047" rx="17" fill="#9C8267"/>
<path fill-rule="evenodd" clip-rule="evenodd" d="M10.1228 18.4522V26.8047H8.59727V18.4522H2C2 18.4522 5.04826 17.5461 8.59727 16.9255V9.52548C8.59727 8.68557 9.28284 8 10.1228 8V16.6832C10.4465 16.6373 10.7713 16.5949 11.0955 16.5571V18.4522H10.1228ZM12.9764 26.8047H11.4509V8C12.2944 8 12.9764 8.68557 12.9764 9.52549V26.8047ZM22.5494 16.6709V8C21.7059 8 21.0239 8.68557 21.0239 9.52548V16.5589C19.0681 16.4336 16.8032 16.3561 14.193 16.3561C13.9131 16.3561 13.6259 16.3633 13.3352 16.374V18.4523H21.0239V26.8047H22.5494V18.4523H23.8774V26.8047H25.4029V18.4523H31.9999C31.9999 18.4523 30.2517 17.5871 25.4029 16.9684V9.52549C25.4029 8.68557 24.7209 8 23.8774 8V16.7937C23.4542 16.7504 23.0118 16.7093 22.5494 16.6709Z" fill="#FFFEFC"/>
</svg>
