<svg width="32" height="32" viewBox="0 0 32 32" fill="none" xmlns="http://www.w3.org/2000/svg">
<rect width="32" height="32" transform="translate(0 0.000976562)" fill="#1C1713"/>
<path d="M21.4611 4.00098C21.2863 4.00145 21.1445 4.14303 21.1438 4.31803C21.1433 4.40231 21.1767 4.48348 21.2362 4.54341C21.2959 4.60333 21.3768 4.63699 21.4611 4.63724H26.9127L4.6341 26.9163V21.4646C4.63458 21.3803 4.60139 21.2991 4.54195 21.2392C4.4825 21.1795 4.40181 21.1456 4.31729 21.1453C4.23278 21.1453 4.15185 21.1792 4.0924 21.2392C4.03295 21.2989 3.99953 21.38 4.00001 21.4646V27.0474C4.00001 27.5707 4.43046 28.001 4.95356 28.001H10.5368C10.6213 28.0015 10.7022 27.9683 10.7622 27.9088C10.8221 27.8494 10.856 27.7687 10.8562 27.6842C10.8565 27.5994 10.823 27.518 10.7631 27.4581C10.7032 27.3981 10.6218 27.3645 10.5368 27.365H5.08467L27.3633 5.0859V10.5376C27.363 10.6222 27.3962 10.7031 27.4557 10.763C27.5154 10.8229 27.5963 10.8568 27.6808 10.8568C27.7656 10.8573 27.847 10.8237 27.9069 10.7637C27.9668 10.7038 28.0002 10.6224 28 10.5376V4.95413C28 4.4308 27.5695 4.00129 27.0464 4.00129L21.4611 4.00098Z" fill="#FFFEFC"/>
</svg>
