<svg width="202" height="44" viewBox="0 0 202 44" fill="none" xmlns="http://www.w3.org/2000/svg">
<path d="M0.169983 0.772949H10.7843V36.695H0.169983V0.772949Z" fill="#1C1713"/>
<path d="M34.6643 0.772949H42.6242V8.75474L8.1307 43.2271H0.169983V35.3671L34.6643 0.772949Z" fill="#1C1713"/>
<path d="M42.6242 35.2671V43.2271H34.6638L18.906 27.3664L22.9832 23.3532L26.765 19.4058L42.6242 35.2671Z" fill="#1C1713"/>
<path d="M53.2378 0.772949H63.8513V43.2271H53.2378V0.772949Z" fill="#1C1713"/>
<path d="M95.692 22.0148V32.6283L53.2378 32.6283L53.2378 22.0148H95.692Z" fill="#1C1713"/>
<path d="M95.692 0.772949V11.3865L53.2378 11.3865L53.2378 0.772949H95.692Z" fill="#1C1713"/>
<rect x="85.0785" y="0.772949" width="10.6135" height="42.4542" fill="#1C1713"/>
<path d="M122.228 17.3844H132.842V43.2274H122.228V17.3844Z" fill="#1C1713"/>
<path d="M106.306 8.73315L106.306 0.772949L114.266 0.77295L130.024 16.634L130.024 24.5947H122.165L106.306 8.73315Z" fill="#1C1713"/>
<path d="M140.8 0.772952L148.76 0.772953V8.73316L132.899 24.4915L124.938 24.4912V16.6323L140.8 0.772952Z" fill="#1C1713"/>
<path d="M159.373 0.772949H169.987V43.2271H159.373V0.772949Z" fill="#1C1713"/>
<path d="M201.827 22.0148V32.6283L159.373 32.6283L159.373 22.0148H201.827Z" fill="#1C1713"/>
<path d="M201.827 0.772949V11.3865L159.373 11.3865L159.373 0.772949H201.827Z" fill="#1C1713"/>
<rect x="191.214" y="0.772949" width="10.6135" height="42.4542" fill="#1C1713"/>
</svg>
